<?xml version="1.0" encoding="UTF-8"?><svg id="Layer_2" xmlns="http://www.w3.org/2000/svg" viewBox="0 0 1478 1044.68"><defs><style>.cls-1{fill:#f0f3f9;}</style></defs><g id="Layer_2-2"><g><g><polygon class="cls-1" points="15 40.41 15 86.6 55 109.7 95 86.6 95 40.41 55 17.32 15 40.41"/><path class="cls-1" d="M55,0L0,31.75v63.51l55,31.75,55-31.75V31.75L55,0Zm47.5,90.93l-47.5,27.42L7.5,90.93V36.08L55,8.66l47.5,27.42v54.85Z"/></g><g><polygon class="cls-1" points="133.96 40.41 133.96 86.6 173.96 109.7 213.96 86.6 213.96 40.41 173.96 17.32 133.96 40.41"/><path class="cls-1" d="M173.96,0l-55,31.75v63.51l55,31.75,55-31.75V31.75L173.96,0Zm47.5,90.93l-47.5,27.42-47.5-27.42V36.08l47.5-27.42,47.5,27.42v54.85Z"/></g><g><polygon class="cls-1" points="252.91 40.41 252.91 86.6 292.91 109.7 332.91 86.6 332.91 40.41 292.91 17.32 252.91 40.41"/><path class="cls-1" d="M292.91,0l-55,31.75v63.51l55,31.75,55-31.75V31.75L292.91,0Zm47.5,90.93l-47.5,27.42-47.5-27.42V36.08l47.5-27.42,47.5,27.42v54.85Z"/></g><g><polygon class="cls-1" points="371.87 40.41 371.87 86.6 411.87 109.7 451.87 86.6 451.87 40.41 411.87 17.32 371.87 40.41"/><path class="cls-1" d="M411.87,0l-55,31.75v63.51l55,31.75,55-31.75V31.75L411.87,0Zm47.5,90.93l-47.5,27.42-47.5-27.42V36.08l47.5-27.42,47.5,27.42v54.85Z"/></g><g><polygon class="cls-1" points="490.83 40.41 490.83 86.6 530.83 109.7 570.83 86.6 570.83 40.41 530.83 17.32 490.83 40.41"/><path class="cls-1" d="M530.83,0l-55,31.75v63.51l55,31.75,55-31.75V31.75L530.83,0Zm47.5,90.93l-47.5,27.42-47.5-27.42V36.08l47.5-27.42,47.5,27.42v54.85Z"/></g><g><polygon class="cls-1" points="609.78 40.41 609.78 86.6 649.78 109.7 689.78 86.6 689.78 40.41 649.78 17.32 609.78 40.41"/><path class="cls-1" d="M649.78,0l-55,31.75v63.51l55,31.75,55-31.75V31.75L649.78,0Zm47.5,90.93l-47.5,27.42-47.5-27.42V36.08l47.5-27.42,47.5,27.42v54.85Z"/></g><g><polygon class="cls-1" points="728.74 40.41 728.74 86.6 768.74 109.7 808.74 86.6 808.74 40.41 768.74 17.32 728.74 40.41"/><path class="cls-1" d="M768.74,0l-55,31.75v63.51l55,31.75,55-31.75V31.75L768.74,0Zm47.5,90.93l-47.5,27.42-47.5-27.42V36.08l47.5-27.42,47.5,27.42v54.85Z"/></g><g><polygon class="cls-1" points="847.7 40.41 847.7 86.6 887.7 109.7 927.7 86.6 927.7 40.41 887.7 17.32 847.7 40.41"/><path class="cls-1" d="M887.7,0l-55,31.75v63.51l55,31.75,55-31.75V31.75L887.7,0Zm47.5,90.93l-47.5,27.42-47.5-27.42V36.08l47.5-27.42,47.5,27.42v54.85Z"/></g><g><polygon class="cls-1" points="966.65 40.41 966.65 86.6 1006.65 109.7 1046.65 86.6 1046.65 40.41 1006.65 17.32 966.65 40.41"/><path class="cls-1" d="M1006.65,0l-55,31.75v63.51l55,31.75,55-31.75V31.75L1006.65,0Zm47.5,90.93l-47.5,27.42-47.5-27.42V36.08l47.5-27.42,47.5,27.42v54.85Z"/></g><g><polygon class="cls-1" points="1085.61 40.41 1085.61 86.6 1125.61 109.7 1165.61 86.6 1165.61 40.41 1125.61 17.32 1085.61 40.41"/><path class="cls-1" d="M1125.61,0l-55,31.75v63.51l55,31.75,55-31.75V31.75L1125.61,0Zm47.5,90.93l-47.5,27.42-47.5-27.42V36.08l47.5-27.42,47.5,27.42v54.85Z"/></g><g><polygon class="cls-1" points="1204.57 40.41 1204.57 86.6 1244.57 109.7 1284.57 86.6 1284.57 40.41 1244.57 17.32 1204.57 40.41"/><path class="cls-1" d="M1244.57,0l-55,31.75v63.51l55,31.75,55-31.75V31.75L1244.57,0Zm47.5,90.93l-47.5,27.42-47.5-27.42V36.08l47.5-27.42,47.5,27.42v54.85Z"/></g><g><polygon class="cls-1" points="1323.52 40.41 1323.52 86.6 1363.52 109.7 1403.52 86.6 1403.52 40.41 1363.52 17.32 1323.52 40.41"/><path class="cls-1" d="M1363.52,0l-55,31.75v63.51l55,31.75,55-31.75V31.75L1363.52,0Zm47.5,90.93l-47.5,27.42-47.5-27.42V36.08l47.5-27.42,47.5,27.42v54.85Z"/></g></g><g><g><polygon class="cls-1" points="74.48 142.38 74.48 188.57 114.48 211.66 154.48 188.57 154.48 142.38 114.48 119.28 74.48 142.38"/><path class="cls-1" d="M114.48,101.96l-55,31.75v63.51l55,31.75,55-31.75v-63.51l-55-31.75Zm47.5,90.93l-47.5,27.42-47.5-27.42v-54.85l47.5-27.42,47.5,27.42v54.85Z"/></g><g><polygon class="cls-1" points="193.43 142.38 193.43 188.57 233.43 211.66 273.43 188.57 273.43 142.38 233.43 119.28 193.43 142.38"/><path class="cls-1" d="M233.43,101.96l-55,31.75v63.51l55,31.75,55-31.75v-63.51l-55-31.75Zm47.5,90.93l-47.5,27.42-47.5-27.42v-54.85l47.5-27.42,47.5,27.42v54.85Z"/></g><g><polygon class="cls-1" points="312.39 142.38 312.39 188.57 352.39 211.66 392.39 188.57 392.39 142.38 352.39 119.28 312.39 142.38"/><path class="cls-1" d="M352.39,101.96l-55,31.75v63.51l55,31.75,55-31.75v-63.51l-55-31.75Zm47.5,90.93l-47.5,27.42-47.5-27.42v-54.85l47.5-27.42,47.5,27.42v54.85Z"/></g><g><polygon class="cls-1" points="431.35 142.38 431.35 188.57 471.35 211.66 511.35 188.57 511.35 142.38 471.35 119.28 431.35 142.38"/><path class="cls-1" d="M471.35,101.96l-55,31.75v63.51l55,31.75,55-31.75v-63.51l-55-31.75Zm47.5,90.93l-47.5,27.42-47.5-27.42v-54.85l47.5-27.42,47.5,27.42v54.85Z"/></g><g><polygon class="cls-1" points="550.3 142.38 550.3 188.57 590.3 211.66 630.3 188.57 630.3 142.38 590.3 119.28 550.3 142.38"/><path class="cls-1" d="M590.3,101.96l-55,31.75v63.51l55,31.75,55-31.75v-63.51l-55-31.75Zm47.5,90.93l-47.5,27.42-47.5-27.42v-54.85l47.5-27.42,47.5,27.42v54.85Z"/></g><g><polygon class="cls-1" points="669.26 142.38 669.26 188.57 709.26 211.66 749.26 188.57 749.26 142.38 709.26 119.28 669.26 142.38"/><path class="cls-1" d="M709.26,101.96l-55,31.75v63.51l55,31.75,55-31.75v-63.51l-55-31.75Zm47.5,90.93l-47.5,27.42-47.5-27.42v-54.85l47.5-27.42,47.5,27.42v54.85Z"/></g><g><polygon class="cls-1" points="788.22 142.38 788.22 188.57 828.22 211.66 868.22 188.57 868.22 142.38 828.22 119.28 788.22 142.38"/><path class="cls-1" d="M828.22,101.96l-55,31.75v63.51l55,31.75,55-31.75v-63.51l-55-31.75Zm47.5,90.93l-47.5,27.42-47.5-27.42v-54.85l47.5-27.42,47.5,27.42v54.85Z"/></g><g><polygon class="cls-1" points="907.17 142.38 907.17 188.57 947.17 211.66 987.17 188.57 987.17 142.38 947.17 119.28 907.17 142.38"/><path class="cls-1" d="M947.17,101.96l-55,31.75v63.51l55,31.75,55-31.75v-63.51l-55-31.75Zm47.5,90.93l-47.5,27.42-47.5-27.42v-54.85l47.5-27.42,47.5,27.42v54.85Z"/></g><g><polygon class="cls-1" points="1026.13 142.38 1026.13 188.57 1066.13 211.66 1106.13 188.57 1106.13 142.38 1066.13 119.28 1026.13 142.38"/><path class="cls-1" d="M1066.13,101.96l-55,31.75v63.51l55,31.75,55-31.75v-63.51l-55-31.75Zm47.5,90.93l-47.5,27.42-47.5-27.42v-54.85l47.5-27.42,47.5,27.42v54.85Z"/></g><g><polygon class="cls-1" points="1145.09 142.38 1145.09 188.57 1185.09 211.66 1225.09 188.57 1225.09 142.38 1185.09 119.28 1145.09 142.38"/><path class="cls-1" d="M1185.09,101.96l-55,31.75v63.51l55,31.75,55-31.75v-63.51l-55-31.75Zm47.5,90.93l-47.5,27.42-47.5-27.42v-54.85l47.5-27.42,47.5,27.42v54.85Z"/></g><g><polygon class="cls-1" points="1264.04 142.38 1264.04 188.57 1304.04 211.66 1344.04 188.57 1344.04 142.38 1304.04 119.28 1264.04 142.38"/><path class="cls-1" d="M1304.04,101.96l-55,31.75v63.51l55,31.75,55-31.75v-63.51l-55-31.75Zm47.5,90.93l-47.5,27.42-47.5-27.42v-54.85l47.5-27.42,47.5,27.42v54.85Z"/></g><g><polygon class="cls-1" points="1383 142.38 1383 188.57 1423 211.66 1463 188.57 1463 142.38 1423 119.28 1383 142.38"/><path class="cls-1" d="M1423,101.96l-55,31.75v63.51l55,31.75,55-31.75v-63.51l-55-31.75Zm47.5,90.93l-47.5,27.42-47.5-27.42v-54.85l47.5-27.42,47.5,27.42v54.85Z"/></g></g><g><g><polygon class="cls-1" points="15 244.34 15 290.53 55 313.62 95 290.53 95 244.34 55 221.25 15 244.34"/><path class="cls-1" d="M55,203.93L0,235.68v63.51l55,31.75,55-31.75v-63.51l-55-31.75Zm47.5,90.93l-47.5,27.42-47.5-27.42v-54.85l47.5-27.42,47.5,27.42v54.85Z"/></g><g><polygon class="cls-1" points="133.96 244.34 133.96 290.53 173.96 313.62 213.96 290.53 213.96 244.34 173.96 221.25 133.96 244.34"/><path class="cls-1" d="M173.96,203.93l-55,31.75v63.51l55,31.75,55-31.75v-63.51l-55-31.75Zm47.5,90.93l-47.5,27.42-47.5-27.42v-54.85l47.5-27.42,47.5,27.42v54.85Z"/></g><g><polygon class="cls-1" points="252.91 244.34 252.91 290.53 292.91 313.62 332.91 290.53 332.91 244.34 292.91 221.25 252.91 244.34"/><path class="cls-1" d="M292.91,203.93l-55,31.75v63.51l55,31.75,55-31.75v-63.51l-55-31.75Zm47.5,90.93l-47.5,27.42-47.5-27.42v-54.85l47.5-27.42,47.5,27.42v54.85Z"/></g><g><polygon class="cls-1" points="371.87 244.34 371.87 290.53 411.87 313.62 451.87 290.53 451.87 244.34 411.87 221.25 371.87 244.34"/><path class="cls-1" d="M411.87,203.93l-55,31.75v63.51l55,31.75,55-31.75v-63.51l-55-31.75Zm47.5,90.93l-47.5,27.42-47.5-27.42v-54.85l47.5-27.42,47.5,27.42v54.85Z"/></g><g><polygon class="cls-1" points="490.83 244.34 490.83 290.53 530.83 313.62 570.83 290.53 570.83 244.34 530.83 221.25 490.83 244.34"/><path class="cls-1" d="M530.83,203.93l-55,31.75v63.51l55,31.75,55-31.75v-63.51l-55-31.75Zm47.5,90.93l-47.5,27.42-47.5-27.42v-54.85l47.5-27.42,47.5,27.42v54.85Z"/></g><g><polygon class="cls-1" points="609.78 244.34 609.78 290.53 649.78 313.62 689.78 290.53 689.78 244.34 649.78 221.25 609.78 244.34"/><path class="cls-1" d="M649.78,203.93l-55,31.75v63.51l55,31.75,55-31.75v-63.51l-55-31.75Zm47.5,90.93l-47.5,27.42-47.5-27.42v-54.85l47.5-27.42,47.5,27.42v54.85Z"/></g><g><polygon class="cls-1" points="728.74 244.34 728.74 290.53 768.74 313.62 808.74 290.53 808.74 244.34 768.74 221.25 728.74 244.34"/><path class="cls-1" d="M768.74,203.93l-55,31.75v63.51l55,31.75,55-31.75v-63.51l-55-31.75Zm47.5,90.93l-47.5,27.42-47.5-27.42v-54.85l47.5-27.42,47.5,27.42v54.85Z"/></g><g><polygon class="cls-1" points="847.7 244.34 847.7 290.53 887.7 313.62 927.7 290.53 927.7 244.34 887.7 221.25 847.7 244.34"/><path class="cls-1" d="M887.7,203.93l-55,31.75v63.51l55,31.75,55-31.75v-63.51l-55-31.75Zm47.5,90.93l-47.5,27.42-47.5-27.42v-54.85l47.5-27.42,47.5,27.42v54.85Z"/></g><g><polygon class="cls-1" points="966.65 244.34 966.65 290.53 1006.65 313.62 1046.65 290.53 1046.65 244.34 1006.65 221.25 966.65 244.34"/><path class="cls-1" d="M1006.65,203.93l-55,31.75v63.51l55,31.75,55-31.75v-63.51l-55-31.75Zm47.5,90.93l-47.5,27.42-47.5-27.42v-54.85l47.5-27.42,47.5,27.42v54.85Z"/></g><g><polygon class="cls-1" points="1085.61 244.34 1085.61 290.53 1125.61 313.62 1165.61 290.53 1165.61 244.34 1125.61 221.25 1085.61 244.34"/><path class="cls-1" d="M1125.61,203.93l-55,31.75v63.51l55,31.75,55-31.75v-63.51l-55-31.75Zm47.5,90.93l-47.5,27.42-47.5-27.42v-54.85l47.5-27.42,47.5,27.42v54.85Z"/></g><g><polygon class="cls-1" points="1204.57 244.34 1204.57 290.53 1244.57 313.62 1284.57 290.53 1284.57 244.34 1244.57 221.25 1204.57 244.34"/><path class="cls-1" d="M1244.57,203.93l-55,31.75v63.51l55,31.75,55-31.75v-63.51l-55-31.75Zm47.5,90.93l-47.5,27.42-47.5-27.42v-54.85l47.5-27.42,47.5,27.42v54.85Z"/></g><g><polygon class="cls-1" points="1323.52 244.34 1323.52 290.53 1363.52 313.62 1403.52 290.53 1403.52 244.34 1363.52 221.25 1323.52 244.34"/><path class="cls-1" d="M1363.52,203.93l-55,31.75v63.51l55,31.75,55-31.75v-63.51l-55-31.75Zm47.5,90.93l-47.5,27.42-47.5-27.42v-54.85l47.5-27.42,47.5,27.42v54.85Z"/></g></g><g><g><polygon class="cls-1" points="74.48 346.3 74.48 392.49 114.48 415.58 154.48 392.49 154.48 346.3 114.48 323.21 74.48 346.3"/><path class="cls-1" d="M114.48,305.89l-55,31.75v63.51l55,31.75,55-31.75v-63.51l-55-31.75Zm47.5,90.93l-47.5,27.42-47.5-27.42v-54.85l47.5-27.42,47.5,27.42v54.85Z"/></g><g><polygon class="cls-1" points="193.43 346.3 193.43 392.49 233.43 415.58 273.43 392.49 273.43 346.3 233.43 323.21 193.43 346.3"/><path class="cls-1" d="M233.43,305.89l-55,31.75v63.51l55,31.75,55-31.75v-63.51l-55-31.75Zm47.5,90.93l-47.5,27.42-47.5-27.42v-54.85l47.5-27.42,47.5,27.42v54.85Z"/></g><g><polygon class="cls-1" points="312.39 346.3 312.39 392.49 352.39 415.58 392.39 392.49 392.39 346.3 352.39 323.21 312.39 346.3"/><path class="cls-1" d="M352.39,305.89l-55,31.75v63.51l55,31.75,55-31.75v-63.51l-55-31.75Zm47.5,90.93l-47.5,27.42-47.5-27.42v-54.85l47.5-27.42,47.5,27.42v54.85Z"/></g><g><polygon class="cls-1" points="431.35 346.3 431.35 392.49 471.35 415.58 511.35 392.49 511.35 346.3 471.35 323.21 431.35 346.3"/><path class="cls-1" d="M471.35,305.89l-55,31.75v63.51l55,31.75,55-31.75v-63.51l-55-31.75Zm47.5,90.93l-47.5,27.42-47.5-27.42v-54.85l47.5-27.42,47.5,27.42v54.85Z"/></g><g><polygon class="cls-1" points="550.3 346.3 550.3 392.49 590.3 415.58 630.3 392.49 630.3 346.3 590.3 323.21 550.3 346.3"/><path class="cls-1" d="M590.3,305.89l-55,31.75v63.51l55,31.75,55-31.75v-63.51l-55-31.75Zm47.5,90.93l-47.5,27.42-47.5-27.42v-54.85l47.5-27.42,47.5,27.42v54.85Z"/></g><g><polygon class="cls-1" points="669.26 346.3 669.26 392.49 709.26 415.58 749.26 392.49 749.26 346.3 709.26 323.21 669.26 346.3"/><path class="cls-1" d="M709.26,305.89l-55,31.75v63.51l55,31.75,55-31.75v-63.51l-55-31.75Zm47.5,90.93l-47.5,27.42-47.5-27.42v-54.85l47.5-27.42,47.5,27.42v54.85Z"/></g><g><polygon class="cls-1" points="788.22 346.3 788.22 392.49 828.22 415.58 868.22 392.49 868.22 346.3 828.22 323.21 788.22 346.3"/><path class="cls-1" d="M828.22,305.89l-55,31.75v63.51l55,31.75,55-31.75v-63.51l-55-31.75Zm47.5,90.93l-47.5,27.42-47.5-27.42v-54.85l47.5-27.42,47.5,27.42v54.85Z"/></g><g><polygon class="cls-1" points="907.17 346.3 907.17 392.49 947.17 415.58 987.17 392.49 987.17 346.3 947.17 323.21 907.17 346.3"/><path class="cls-1" d="M947.17,305.89l-55,31.75v63.51l55,31.75,55-31.75v-63.51l-55-31.75Zm47.5,90.93l-47.5,27.42-47.5-27.42v-54.85l47.5-27.42,47.5,27.42v54.85Z"/></g><g><polygon class="cls-1" points="1026.13 346.3 1026.13 392.49 1066.13 415.58 1106.13 392.49 1106.13 346.3 1066.13 323.21 1026.13 346.3"/><path class="cls-1" d="M1066.13,305.89l-55,31.75v63.51l55,31.75,55-31.75v-63.51l-55-31.75Zm47.5,90.93l-47.5,27.42-47.5-27.42v-54.85l47.5-27.42,47.5,27.42v54.85Z"/></g><g><polygon class="cls-1" points="1145.09 346.3 1145.09 392.49 1185.09 415.58 1225.09 392.49 1225.09 346.3 1185.09 323.21 1145.09 346.3"/><path class="cls-1" d="M1185.09,305.89l-55,31.75v63.51l55,31.75,55-31.75v-63.51l-55-31.75Zm47.5,90.93l-47.5,27.42-47.5-27.42v-54.85l47.5-27.42,47.5,27.42v54.85Z"/></g><g><polygon class="cls-1" points="1264.04 346.3 1264.04 392.49 1304.04 415.58 1344.04 392.49 1344.04 346.3 1304.04 323.21 1264.04 346.3"/><path class="cls-1" d="M1304.04,305.89l-55,31.75v63.51l55,31.75,55-31.75v-63.51l-55-31.75Zm47.5,90.93l-47.5,27.42-47.5-27.42v-54.85l47.5-27.42,47.5,27.42v54.85Z"/></g><g><polygon class="cls-1" points="1383 346.3 1383 392.49 1423 415.58 1463 392.49 1463 346.3 1423 323.21 1383 346.3"/><path class="cls-1" d="M1423,305.89l-55,31.75v63.51l55,31.75,55-31.75v-63.51l-55-31.75Zm47.5,90.93l-47.5,27.42-47.5-27.42v-54.85l47.5-27.42,47.5,27.42v54.85Z"/></g></g><g><g><polygon class="cls-1" points="15 448.27 15 494.45 55 517.55 95 494.45 95 448.27 55 425.17 15 448.27"/><path class="cls-1" d="M55,407.85L0,439.61v63.51l55,31.75,55-31.75v-63.51l-55-31.75Zm47.5,90.93l-47.5,27.42-47.5-27.42v-54.85l47.5-27.42,47.5,27.42v54.85Z"/></g><g><polygon class="cls-1" points="133.96 448.27 133.96 494.45 173.96 517.55 213.96 494.45 213.96 448.27 173.96 425.17 133.96 448.27"/><path class="cls-1" d="M173.96,407.85l-55,31.75v63.51l55,31.75,55-31.75v-63.51l-55-31.75Zm47.5,90.93l-47.5,27.42-47.5-27.42v-54.85l47.5-27.42,47.5,27.42v54.85Z"/></g><g><polygon class="cls-1" points="252.91 448.27 252.91 494.45 292.91 517.55 332.91 494.45 332.91 448.27 292.91 425.17 252.91 448.27"/><path class="cls-1" d="M292.91,407.85l-55,31.75v63.51l55,31.75,55-31.75v-63.51l-55-31.75Zm47.5,90.93l-47.5,27.42-47.5-27.42v-54.85l47.5-27.42,47.5,27.42v54.85Z"/></g><g><polygon class="cls-1" points="371.87 448.27 371.87 494.45 411.87 517.55 451.87 494.45 451.87 448.27 411.87 425.17 371.87 448.27"/><path class="cls-1" d="M411.87,407.85l-55,31.75v63.51l55,31.75,55-31.75v-63.51l-55-31.75Zm47.5,90.93l-47.5,27.42-47.5-27.42v-54.85l47.5-27.42,47.5,27.42v54.85Z"/></g><g><polygon class="cls-1" points="490.83 448.27 490.83 494.45 530.83 517.55 570.83 494.45 570.83 448.27 530.83 425.17 490.83 448.27"/><path class="cls-1" d="M530.83,407.85l-55,31.75v63.51l55,31.75,55-31.75v-63.51l-55-31.75Zm47.5,90.93l-47.5,27.42-47.5-27.42v-54.85l47.5-27.42,47.5,27.42v54.85Z"/></g><g><polygon class="cls-1" points="609.78 448.27 609.78 494.45 649.78 517.55 689.78 494.45 689.78 448.27 649.78 425.17 609.78 448.27"/><path class="cls-1" d="M649.78,407.85l-55,31.75v63.51l55,31.75,55-31.75v-63.51l-55-31.75Zm47.5,90.93l-47.5,27.42-47.5-27.42v-54.85l47.5-27.42,47.5,27.42v54.85Z"/></g><g><polygon class="cls-1" points="728.74 448.27 728.74 494.45 768.74 517.55 808.74 494.45 808.74 448.27 768.74 425.17 728.74 448.27"/><path class="cls-1" d="M768.74,407.85l-55,31.75v63.51l55,31.75,55-31.75v-63.51l-55-31.75Zm47.5,90.93l-47.5,27.42-47.5-27.42v-54.85l47.5-27.42,47.5,27.42v54.85Z"/></g><g><polygon class="cls-1" points="847.7 448.27 847.7 494.45 887.7 517.55 927.7 494.45 927.7 448.27 887.7 425.17 847.7 448.27"/><path class="cls-1" d="M887.7,407.85l-55,31.75v63.51l55,31.75,55-31.75v-63.51l-55-31.75Zm47.5,90.93l-47.5,27.42-47.5-27.42v-54.85l47.5-27.42,47.5,27.42v54.85Z"/></g><g><polygon class="cls-1" points="966.65 448.27 966.65 494.45 1006.65 517.55 1046.65 494.45 1046.65 448.27 1006.65 425.17 966.65 448.27"/><path class="cls-1" d="M1006.65,407.85l-55,31.75v63.51l55,31.75,55-31.75v-63.51l-55-31.75Zm47.5,90.93l-47.5,27.42-47.5-27.42v-54.85l47.5-27.42,47.5,27.42v54.85Z"/></g><g><polygon class="cls-1" points="1085.61 448.27 1085.61 494.45 1125.61 517.55 1165.61 494.45 1165.61 448.27 1125.61 425.17 1085.61 448.27"/><path class="cls-1" d="M1125.61,407.85l-55,31.75v63.51l55,31.75,55-31.75v-63.51l-55-31.75Zm47.5,90.93l-47.5,27.42-47.5-27.42v-54.85l47.5-27.42,47.5,27.42v54.85Z"/></g><g><polygon class="cls-1" points="1204.57 448.27 1204.57 494.45 1244.57 517.55 1284.57 494.45 1284.57 448.27 1244.57 425.17 1204.57 448.27"/><path class="cls-1" d="M1244.57,407.85l-55,31.75v63.51l55,31.75,55-31.75v-63.51l-55-31.75Zm47.5,90.93l-47.5,27.42-47.5-27.42v-54.85l47.5-27.42,47.5,27.42v54.85Z"/></g><g><polygon class="cls-1" points="1323.52 448.27 1323.52 494.45 1363.52 517.55 1403.52 494.45 1403.52 448.27 1363.52 425.17 1323.52 448.27"/><path class="cls-1" d="M1363.52,407.85l-55,31.75v63.51l55,31.75,55-31.75v-63.51l-55-31.75Zm47.5,90.93l-47.5,27.42-47.5-27.42v-54.85l47.5-27.42,47.5,27.42v54.85Z"/></g></g><g><g><polygon class="cls-1" points="74.48 550.23 74.48 596.42 114.48 619.51 154.48 596.42 154.48 550.23 114.48 527.13 74.48 550.23"/><path class="cls-1" d="M114.48,509.81l-55,31.75v63.51l55,31.75,55-31.75v-63.51l-55-31.75Zm47.5,90.93l-47.5,27.42-47.5-27.42v-54.85l47.5-27.42,47.5,27.42v54.85Z"/></g><g><polygon class="cls-1" points="193.43 550.23 193.43 596.42 233.43 619.51 273.43 596.42 273.43 550.23 233.43 527.13 193.43 550.23"/><path class="cls-1" d="M233.43,509.81l-55,31.75v63.51l55,31.75,55-31.75v-63.51l-55-31.75Zm47.5,90.93l-47.5,27.42-47.5-27.42v-54.85l47.5-27.42,47.5,27.42v54.85Z"/></g><g><polygon class="cls-1" points="312.39 550.23 312.39 596.42 352.39 619.51 392.39 596.42 392.39 550.23 352.39 527.13 312.39 550.23"/><path class="cls-1" d="M352.39,509.81l-55,31.75v63.51l55,31.75,55-31.75v-63.51l-55-31.75Zm47.5,90.93l-47.5,27.42-47.5-27.42v-54.85l47.5-27.42,47.5,27.42v54.85Z"/></g><g><polygon class="cls-1" points="431.35 550.23 431.35 596.42 471.35 619.51 511.35 596.42 511.35 550.23 471.35 527.13 431.35 550.23"/><path class="cls-1" d="M471.35,509.81l-55,31.75v63.51l55,31.75,55-31.75v-63.51l-55-31.75Zm47.5,90.93l-47.5,27.42-47.5-27.42v-54.85l47.5-27.42,47.5,27.42v54.85Z"/></g><g><polygon class="cls-1" points="550.3 550.23 550.3 596.42 590.3 619.51 630.3 596.42 630.3 550.23 590.3 527.13 550.3 550.23"/><path class="cls-1" d="M590.3,509.81l-55,31.75v63.51l55,31.75,55-31.75v-63.51l-55-31.75Zm47.5,90.93l-47.5,27.42-47.5-27.42v-54.85l47.5-27.42,47.5,27.42v54.85Z"/></g><g><polygon class="cls-1" points="669.26 550.23 669.26 596.42 709.26 619.51 749.26 596.42 749.26 550.23 709.26 527.13 669.26 550.23"/><path class="cls-1" d="M709.26,509.81l-55,31.75v63.51l55,31.75,55-31.75v-63.51l-55-31.75Zm47.5,90.93l-47.5,27.42-47.5-27.42v-54.85l47.5-27.42,47.5,27.42v54.85Z"/></g><g><polygon class="cls-1" points="788.22 550.23 788.22 596.42 828.22 619.51 868.22 596.42 868.22 550.23 828.22 527.13 788.22 550.23"/><path class="cls-1" d="M828.22,509.81l-55,31.75v63.51l55,31.75,55-31.75v-63.51l-55-31.75Zm47.5,90.93l-47.5,27.42-47.5-27.42v-54.85l47.5-27.42,47.5,27.42v54.85Z"/></g><g><polygon class="cls-1" points="907.17 550.23 907.17 596.42 947.17 619.51 987.17 596.42 987.17 550.23 947.17 527.13 907.17 550.23"/><path class="cls-1" d="M947.17,509.81l-55,31.75v63.51l55,31.75,55-31.75v-63.51l-55-31.75Zm47.5,90.93l-47.5,27.42-47.5-27.42v-54.85l47.5-27.42,47.5,27.42v54.85Z"/></g><g><polygon class="cls-1" points="1026.13 550.23 1026.13 596.42 1066.13 619.51 1106.13 596.42 1106.13 550.23 1066.13 527.13 1026.13 550.23"/><path class="cls-1" d="M1066.13,509.81l-55,31.75v63.51l55,31.75,55-31.75v-63.51l-55-31.75Zm47.5,90.93l-47.5,27.42-47.5-27.42v-54.85l47.5-27.42,47.5,27.42v54.85Z"/></g><g><polygon class="cls-1" points="1145.09 550.23 1145.09 596.42 1185.09 619.51 1225.09 596.42 1225.09 550.23 1185.09 527.13 1145.09 550.23"/><path class="cls-1" d="M1185.09,509.81l-55,31.75v63.51l55,31.75,55-31.75v-63.51l-55-31.75Zm47.5,90.93l-47.5,27.42-47.5-27.42v-54.85l47.5-27.42,47.5,27.42v54.85Z"/></g><g><polygon class="cls-1" points="1264.04 550.23 1264.04 596.42 1304.04 619.51 1344.04 596.42 1344.04 550.23 1304.04 527.13 1264.04 550.23"/><path class="cls-1" d="M1304.04,509.81l-55,31.75v63.51l55,31.75,55-31.75v-63.51l-55-31.75Zm47.5,90.93l-47.5,27.42-47.5-27.42v-54.85l47.5-27.42,47.5,27.42v54.85Z"/></g><g><polygon class="cls-1" points="1383 550.23 1383 596.42 1423 619.51 1463 596.42 1463 550.23 1423 527.13 1383 550.23"/><path class="cls-1" d="M1423,509.81l-55,31.75v63.51l55,31.75,55-31.75v-63.51l-55-31.75Zm47.5,90.93l-47.5,27.42-47.5-27.42v-54.85l47.5-27.42,47.5,27.42v54.85Z"/></g></g><g><g><polygon class="cls-1" points="15 652.19 15 698.38 55 721.47 95 698.38 95 652.19 55 629.1 15 652.19"/><path class="cls-1" d="M55,611.78L0,643.53v63.51l55,31.75,55-31.75v-63.51l-55-31.75Zm47.5,90.93l-47.5,27.42-47.5-27.42v-54.85l47.5-27.42,47.5,27.42v54.85Z"/></g><g><polygon class="cls-1" points="133.96 652.19 133.96 698.38 173.96 721.47 213.96 698.38 213.96 652.19 173.96 629.1 133.96 652.19"/><path class="cls-1" d="M173.96,611.78l-55,31.75v63.51l55,31.75,55-31.75v-63.51l-55-31.75Zm47.5,90.93l-47.5,27.42-47.5-27.42v-54.85l47.5-27.42,47.5,27.42v54.85Z"/></g><g><polygon class="cls-1" points="252.91 652.19 252.91 698.38 292.91 721.47 332.91 698.38 332.91 652.19 292.91 629.1 252.91 652.19"/><path class="cls-1" d="M292.91,611.78l-55,31.75v63.51l55,31.75,55-31.75v-63.51l-55-31.75Zm47.5,90.93l-47.5,27.42-47.5-27.42v-54.85l47.5-27.42,47.5,27.42v54.85Z"/></g><g><polygon class="cls-1" points="371.87 652.19 371.87 698.38 411.87 721.47 451.87 698.38 451.87 652.19 411.87 629.1 371.87 652.19"/><path class="cls-1" d="M411.87,611.78l-55,31.75v63.51l55,31.75,55-31.75v-63.51l-55-31.75Zm47.5,90.93l-47.5,27.42-47.5-27.42v-54.85l47.5-27.42,47.5,27.42v54.85Z"/></g><g><polygon class="cls-1" points="490.83 652.19 490.83 698.38 530.83 721.47 570.83 698.38 570.83 652.19 530.83 629.1 490.83 652.19"/><path class="cls-1" d="M530.83,611.78l-55,31.75v63.51l55,31.75,55-31.75v-63.51l-55-31.75Zm47.5,90.93l-47.5,27.42-47.5-27.42v-54.85l47.5-27.42,47.5,27.42v54.85Z"/></g><g><polygon class="cls-1" points="609.78 652.19 609.78 698.38 649.78 721.47 689.78 698.38 689.78 652.19 649.78 629.1 609.78 652.19"/><path class="cls-1" d="M649.78,611.78l-55,31.75v63.51l55,31.75,55-31.75v-63.51l-55-31.75Zm47.5,90.93l-47.5,27.42-47.5-27.42v-54.85l47.5-27.42,47.5,27.42v54.85Z"/></g><g><polygon class="cls-1" points="728.74 652.19 728.74 698.38 768.74 721.47 808.74 698.38 808.74 652.19 768.74 629.1 728.74 652.19"/><path class="cls-1" d="M768.74,611.78l-55,31.75v63.51l55,31.75,55-31.75v-63.51l-55-31.75Zm47.5,90.93l-47.5,27.42-47.5-27.42v-54.85l47.5-27.42,47.5,27.42v54.85Z"/></g><g><polygon class="cls-1" points="847.7 652.19 847.7 698.38 887.7 721.47 927.7 698.38 927.7 652.19 887.7 629.1 847.7 652.19"/><path class="cls-1" d="M887.7,611.78l-55,31.75v63.51l55,31.75,55-31.75v-63.51l-55-31.75Zm47.5,90.93l-47.5,27.42-47.5-27.42v-54.85l47.5-27.42,47.5,27.42v54.85Z"/></g><g><polygon class="cls-1" points="966.65 652.19 966.65 698.38 1006.65 721.47 1046.65 698.38 1046.65 652.19 1006.65 629.1 966.65 652.19"/><path class="cls-1" d="M1006.65,611.78l-55,31.75v63.51l55,31.75,55-31.75v-63.51l-55-31.75Zm47.5,90.93l-47.5,27.42-47.5-27.42v-54.85l47.5-27.42,47.5,27.42v54.85Z"/></g><g><polygon class="cls-1" points="1085.61 652.19 1085.61 698.38 1125.61 721.47 1165.61 698.38 1165.61 652.19 1125.61 629.1 1085.61 652.19"/><path class="cls-1" d="M1125.61,611.78l-55,31.75v63.51l55,31.75,55-31.75v-63.51l-55-31.75Zm47.5,90.93l-47.5,27.42-47.5-27.42v-54.85l47.5-27.42,47.5,27.42v54.85Z"/></g><g><polygon class="cls-1" points="1204.57 652.19 1204.57 698.38 1244.57 721.47 1284.57 698.38 1284.57 652.19 1244.57 629.1 1204.57 652.19"/><path class="cls-1" d="M1244.57,611.78l-55,31.75v63.51l55,31.75,55-31.75v-63.51l-55-31.75Zm47.5,90.93l-47.5,27.42-47.5-27.42v-54.85l47.5-27.42,47.5,27.42v54.85Z"/></g><g><polygon class="cls-1" points="1323.52 652.19 1323.52 698.38 1363.52 721.47 1403.52 698.38 1403.52 652.19 1363.52 629.1 1323.52 652.19"/><path class="cls-1" d="M1363.52,611.78l-55,31.75v63.51l55,31.75,55-31.75v-63.51l-55-31.75Zm47.5,90.93l-47.5,27.42-47.5-27.42v-54.85l47.5-27.42,47.5,27.42v54.85Z"/></g></g><g><g><polygon class="cls-1" points="74.48 754.15 74.48 800.34 114.48 823.44 154.48 800.34 154.48 754.15 114.48 731.06 74.48 754.15"/><path class="cls-1" d="M114.48,713.74l-55,31.75v63.51l55,31.75,55-31.75v-63.51l-55-31.75Zm47.5,90.93l-47.5,27.42-47.5-27.42v-54.85l47.5-27.42,47.5,27.42v54.85Z"/></g><g><polygon class="cls-1" points="193.43 754.15 193.43 800.34 233.43 823.44 273.43 800.34 273.43 754.15 233.43 731.06 193.43 754.15"/><path class="cls-1" d="M233.43,713.74l-55,31.75v63.51l55,31.75,55-31.75v-63.51l-55-31.75Zm47.5,90.93l-47.5,27.42-47.5-27.42v-54.85l47.5-27.42,47.5,27.42v54.85Z"/></g><g><polygon class="cls-1" points="312.39 754.15 312.39 800.34 352.39 823.44 392.39 800.34 392.39 754.15 352.39 731.06 312.39 754.15"/><path class="cls-1" d="M352.39,713.74l-55,31.75v63.51l55,31.75,55-31.75v-63.51l-55-31.75Zm47.5,90.93l-47.5,27.42-47.5-27.42v-54.85l47.5-27.42,47.5,27.42v54.85Z"/></g><g><polygon class="cls-1" points="431.35 754.15 431.35 800.34 471.35 823.44 511.35 800.34 511.35 754.15 471.35 731.06 431.35 754.15"/><path class="cls-1" d="M471.35,713.74l-55,31.75v63.51l55,31.75,55-31.75v-63.51l-55-31.75Zm47.5,90.93l-47.5,27.42-47.5-27.42v-54.85l47.5-27.42,47.5,27.42v54.85Z"/></g><g><polygon class="cls-1" points="550.3 754.15 550.3 800.34 590.3 823.44 630.3 800.34 630.3 754.15 590.3 731.06 550.3 754.15"/><path class="cls-1" d="M590.3,713.74l-55,31.75v63.51l55,31.75,55-31.75v-63.51l-55-31.75Zm47.5,90.93l-47.5,27.42-47.5-27.42v-54.85l47.5-27.42,47.5,27.42v54.85Z"/></g><g><polygon class="cls-1" points="669.26 754.15 669.26 800.34 709.26 823.44 749.26 800.34 749.26 754.15 709.26 731.06 669.26 754.15"/><path class="cls-1" d="M709.26,713.74l-55,31.75v63.51l55,31.75,55-31.75v-63.51l-55-31.75Zm47.5,90.93l-47.5,27.42-47.5-27.42v-54.85l47.5-27.42,47.5,27.42v54.85Z"/></g><g><polygon class="cls-1" points="788.22 754.15 788.22 800.34 828.22 823.44 868.22 800.34 868.22 754.15 828.22 731.06 788.22 754.15"/><path class="cls-1" d="M828.22,713.74l-55,31.75v63.51l55,31.75,55-31.75v-63.51l-55-31.75Zm47.5,90.93l-47.5,27.42-47.5-27.42v-54.85l47.5-27.42,47.5,27.42v54.85Z"/></g><g><polygon class="cls-1" points="907.17 754.15 907.17 800.34 947.17 823.44 987.17 800.34 987.17 754.15 947.17 731.06 907.17 754.15"/><path class="cls-1" d="M947.17,713.74l-55,31.75v63.51l55,31.75,55-31.75v-63.51l-55-31.75Zm47.5,90.93l-47.5,27.42-47.5-27.42v-54.85l47.5-27.42,47.5,27.42v54.85Z"/></g><g><polygon class="cls-1" points="1026.13 754.15 1026.13 800.34 1066.13 823.44 1106.13 800.34 1106.13 754.15 1066.13 731.06 1026.13 754.15"/><path class="cls-1" d="M1066.13,713.74l-55,31.75v63.51l55,31.75,55-31.75v-63.51l-55-31.75Zm47.5,90.93l-47.5,27.42-47.5-27.42v-54.85l47.5-27.42,47.5,27.42v54.85Z"/></g><g><polygon class="cls-1" points="1145.09 754.15 1145.09 800.34 1185.09 823.44 1225.09 800.34 1225.09 754.15 1185.09 731.06 1145.09 754.15"/><path class="cls-1" d="M1185.09,713.74l-55,31.75v63.51l55,31.75,55-31.75v-63.51l-55-31.75Zm47.5,90.93l-47.5,27.42-47.5-27.42v-54.85l47.5-27.42,47.5,27.42v54.85Z"/></g><g><polygon class="cls-1" points="1264.04 754.15 1264.04 800.34 1304.04 823.44 1344.04 800.34 1344.04 754.15 1304.04 731.06 1264.04 754.15"/><path class="cls-1" d="M1304.04,713.74l-55,31.75v63.51l55,31.75,55-31.75v-63.51l-55-31.75Zm47.5,90.93l-47.5,27.42-47.5-27.42v-54.85l47.5-27.42,47.5,27.42v54.85Z"/></g><g><polygon class="cls-1" points="1383 754.15 1383 800.34 1423 823.44 1463 800.34 1463 754.15 1423 731.06 1383 754.15"/><path class="cls-1" d="M1423,713.74l-55,31.75v63.51l55,31.75,55-31.75v-63.51l-55-31.75Zm47.5,90.93l-47.5,27.42-47.5-27.42v-54.85l47.5-27.42,47.5,27.42v54.85Z"/></g></g><g><g><polygon class="cls-1" points="15 856.12 15 902.3 55 925.4 95 902.3 95 856.12 55 833.02 15 856.12"/><path class="cls-1" d="M55,815.7L0,847.46v63.51l55,31.75,55-31.75v-63.51l-55-31.75Zm47.5,90.93l-47.5,27.42-47.5-27.42v-54.85l47.5-27.42,47.5,27.42v54.85Z"/></g><g><polygon class="cls-1" points="133.96 856.12 133.96 902.3 173.96 925.4 213.96 902.3 213.96 856.12 173.96 833.02 133.96 856.12"/><path class="cls-1" d="M173.96,815.7l-55,31.75v63.51l55,31.75,55-31.75v-63.51l-55-31.75Zm47.5,90.93l-47.5,27.42-47.5-27.42v-54.85l47.5-27.42,47.5,27.42v54.85Z"/></g><g><polygon class="cls-1" points="252.91 856.12 252.91 902.3 292.91 925.4 332.91 902.3 332.91 856.12 292.91 833.02 252.91 856.12"/><path class="cls-1" d="M292.91,815.7l-55,31.75v63.51l55,31.75,55-31.75v-63.51l-55-31.75Zm47.5,90.93l-47.5,27.42-47.5-27.42v-54.85l47.5-27.42,47.5,27.42v54.85Z"/></g><g><polygon class="cls-1" points="371.87 856.12 371.87 902.3 411.87 925.4 451.87 902.3 451.87 856.12 411.87 833.02 371.87 856.12"/><path class="cls-1" d="M411.87,815.7l-55,31.75v63.51l55,31.75,55-31.75v-63.51l-55-31.75Zm47.5,90.93l-47.5,27.42-47.5-27.42v-54.85l47.5-27.42,47.5,27.42v54.85Z"/></g><g><polygon class="cls-1" points="490.83 856.12 490.83 902.3 530.83 925.4 570.83 902.3 570.83 856.12 530.83 833.02 490.83 856.12"/><path class="cls-1" d="M530.83,815.7l-55,31.75v63.51l55,31.75,55-31.75v-63.51l-55-31.75Zm47.5,90.93l-47.5,27.42-47.5-27.42v-54.85l47.5-27.42,47.5,27.42v54.85Z"/></g><g><polygon class="cls-1" points="609.78 856.12 609.78 902.3 649.78 925.4 689.78 902.3 689.78 856.12 649.78 833.02 609.78 856.12"/><path class="cls-1" d="M649.78,815.7l-55,31.75v63.51l55,31.75,55-31.75v-63.51l-55-31.75Zm47.5,90.93l-47.5,27.42-47.5-27.42v-54.85l47.5-27.42,47.5,27.42v54.85Z"/></g><g><polygon class="cls-1" points="728.74 856.12 728.74 902.3 768.74 925.4 808.74 902.3 808.74 856.12 768.74 833.02 728.74 856.12"/><path class="cls-1" d="M768.74,815.7l-55,31.75v63.51l55,31.75,55-31.75v-63.51l-55-31.75Zm47.5,90.93l-47.5,27.42-47.5-27.42v-54.85l47.5-27.42,47.5,27.42v54.85Z"/></g><g><polygon class="cls-1" points="847.7 856.12 847.7 902.3 887.7 925.4 927.7 902.3 927.7 856.12 887.7 833.02 847.7 856.12"/><path class="cls-1" d="M887.7,815.7l-55,31.75v63.51l55,31.75,55-31.75v-63.51l-55-31.75Zm47.5,90.93l-47.5,27.42-47.5-27.42v-54.85l47.5-27.42,47.5,27.42v54.85Z"/></g><g><polygon class="cls-1" points="966.65 856.12 966.65 902.3 1006.65 925.4 1046.65 902.3 1046.65 856.12 1006.65 833.02 966.65 856.12"/><path class="cls-1" d="M1006.65,815.7l-55,31.75v63.51l55,31.75,55-31.75v-63.51l-55-31.75Zm47.5,90.93l-47.5,27.42-47.5-27.42v-54.85l47.5-27.42,47.5,27.42v54.85Z"/></g><g><polygon class="cls-1" points="1085.61 856.12 1085.61 902.3 1125.61 925.4 1165.61 902.3 1165.61 856.12 1125.61 833.02 1085.61 856.12"/><path class="cls-1" d="M1125.61,815.7l-55,31.75v63.51l55,31.75,55-31.75v-63.51l-55-31.75Zm47.5,90.93l-47.5,27.42-47.5-27.42v-54.85l47.5-27.42,47.5,27.42v54.85Z"/></g><g><polygon class="cls-1" points="1204.57 856.12 1204.57 902.3 1244.57 925.4 1284.57 902.3 1284.57 856.12 1244.57 833.02 1204.57 856.12"/><path class="cls-1" d="M1244.57,815.7l-55,31.75v63.51l55,31.75,55-31.75v-63.51l-55-31.75Zm47.5,90.93l-47.5,27.42-47.5-27.42v-54.85l47.5-27.42,47.5,27.42v54.85Z"/></g><g><polygon class="cls-1" points="1323.52 856.12 1323.52 902.3 1363.52 925.4 1403.52 902.3 1403.52 856.12 1363.52 833.02 1323.52 856.12"/><path class="cls-1" d="M1363.52,815.7l-55,31.75v63.51l55,31.75,55-31.75v-63.51l-55-31.75Zm47.5,90.93l-47.5,27.42-47.5-27.42v-54.85l47.5-27.42,47.5,27.42v54.85Z"/></g></g><g><g><polygon class="cls-1" points="74.48 958.08 74.48 1004.27 114.48 1027.36 154.48 1004.27 154.48 958.08 114.48 934.99 74.48 958.08"/><path class="cls-1" d="M114.48,917.66l-55,31.75v63.51l55,31.75,55-31.75v-63.51l-55-31.75Zm47.5,90.93l-47.5,27.42-47.5-27.42v-54.85l47.5-27.42,47.5,27.42v54.85Z"/></g><g><polygon class="cls-1" points="193.43 958.08 193.43 1004.27 233.43 1027.36 273.43 1004.27 273.43 958.08 233.43 934.99 193.43 958.08"/><path class="cls-1" d="M233.43,917.66l-55,31.75v63.51l55,31.75,55-31.75v-63.51l-55-31.75Zm47.5,90.93l-47.5,27.42-47.5-27.42v-54.85l47.5-27.42,47.5,27.42v54.85Z"/></g><g><polygon class="cls-1" points="312.39 958.08 312.39 1004.27 352.39 1027.36 392.39 1004.27 392.39 958.08 352.39 934.99 312.39 958.08"/><path class="cls-1" d="M352.39,917.66l-55,31.75v63.51l55,31.75,55-31.75v-63.51l-55-31.75Zm47.5,90.93l-47.5,27.42-47.5-27.42v-54.85l47.5-27.42,47.5,27.42v54.85Z"/></g><g><polygon class="cls-1" points="431.35 958.08 431.35 1004.27 471.35 1027.36 511.35 1004.27 511.35 958.08 471.35 934.99 431.35 958.08"/><path class="cls-1" d="M471.35,917.66l-55,31.75v63.51l55,31.75,55-31.75v-63.51l-55-31.75Zm47.5,90.93l-47.5,27.42-47.5-27.42v-54.85l47.5-27.42,47.5,27.42v54.85Z"/></g><g><polygon class="cls-1" points="550.3 958.08 550.3 1004.27 590.3 1027.36 630.3 1004.27 630.3 958.08 590.3 934.99 550.3 958.08"/><path class="cls-1" d="M590.3,917.66l-55,31.75v63.51l55,31.75,55-31.75v-63.51l-55-31.75Zm47.5,90.93l-47.5,27.42-47.5-27.42v-54.85l47.5-27.42,47.5,27.42v54.85Z"/></g><g><polygon class="cls-1" points="669.26 958.08 669.26 1004.27 709.26 1027.36 749.26 1004.27 749.26 958.08 709.26 934.99 669.26 958.08"/><path class="cls-1" d="M709.26,917.66l-55,31.75v63.51l55,31.75,55-31.75v-63.51l-55-31.75Zm47.5,90.93l-47.5,27.42-47.5-27.42v-54.85l47.5-27.42,47.5,27.42v54.85Z"/></g><g><polygon class="cls-1" points="788.22 958.08 788.22 1004.27 828.22 1027.36 868.22 1004.27 868.22 958.08 828.22 934.99 788.22 958.08"/><path class="cls-1" d="M828.22,917.66l-55,31.75v63.51l55,31.75,55-31.75v-63.51l-55-31.75Zm47.5,90.93l-47.5,27.42-47.5-27.42v-54.85l47.5-27.42,47.5,27.42v54.85Z"/></g><g><polygon class="cls-1" points="907.17 958.08 907.17 1004.27 947.17 1027.36 987.17 1004.27 987.17 958.08 947.17 934.99 907.17 958.08"/><path class="cls-1" d="M947.17,917.66l-55,31.75v63.51l55,31.75,55-31.75v-63.51l-55-31.75Zm47.5,90.93l-47.5,27.42-47.5-27.42v-54.85l47.5-27.42,47.5,27.42v54.85Z"/></g><g><polygon class="cls-1" points="1026.13 958.08 1026.13 1004.27 1066.13 1027.36 1106.13 1004.27 1106.13 958.08 1066.13 934.99 1026.13 958.08"/><path class="cls-1" d="M1066.13,917.66l-55,31.75v63.51l55,31.75,55-31.75v-63.51l-55-31.75Zm47.5,90.93l-47.5,27.42-47.5-27.42v-54.85l47.5-27.42,47.5,27.42v54.85Z"/></g><g><polygon class="cls-1" points="1145.09 958.08 1145.09 1004.27 1185.09 1027.36 1225.09 1004.27 1225.09 958.08 1185.09 934.99 1145.09 958.08"/><path class="cls-1" d="M1185.09,917.66l-55,31.75v63.51l55,31.75,55-31.75v-63.51l-55-31.75Zm47.5,90.93l-47.5,27.42-47.5-27.42v-54.85l47.5-27.42,47.5,27.42v54.85Z"/></g><g><polygon class="cls-1" points="1264.04 958.08 1264.04 1004.27 1304.04 1027.36 1344.04 1004.27 1344.04 958.08 1304.04 934.99 1264.04 958.08"/><path class="cls-1" d="M1304.04,917.66l-55,31.75v63.51l55,31.75,55-31.75v-63.51l-55-31.75Zm47.5,90.93l-47.5,27.42-47.5-27.42v-54.85l47.5-27.42,47.5,27.42v54.85Z"/></g><g><polygon class="cls-1" points="1383 958.08 1383 1004.27 1423 1027.36 1463 1004.27 1463 958.08 1423 934.99 1383 958.08"/><path class="cls-1" d="M1423,917.66l-55,31.75v63.51l55,31.75,55-31.75v-63.51l-55-31.75Zm47.5,90.93l-47.5,27.42-47.5-27.42v-54.85l47.5-27.42,47.5,27.42v54.85Z"/></g></g></g></svg>