<svg xmlns="http://www.w3.org/2000/svg" xmlns:xlink="http://www.w3.org/1999/xlink" viewBox="0 0 1478 1044.68" xmlns:v="https://vecta.io/nano"><g fill="#0b2647"><path d="M15 40.41V86.6l40 23.1 40-23.1V40.41L55 17.32 15 40.41zM55 0L0 31.75v63.51l55 31.75 55-31.75V31.75L55 0zm47.5 90.93L55 118.35 7.5 90.93V36.08L55 8.66l47.5 27.42v54.85z"/><use xlink:href="#B"/><path d="M173.96,0l-55,31.75v63.51l55,31.75,55-31.75V31.75L173.96,0Zm47.5,90.93l-47.5,27.42-47.5-27.42V36.08l47.5-27.42,47.5,27.42v54.85Z"/><use xlink:href="#B" x="118.95"/><path d="M292.91,0l-55,31.75v63.51l55,31.75,55-31.75V31.75L292.91,0Zm47.5,90.93l-47.5,27.42-47.5-27.42V36.08l47.5-27.42,47.5,27.42v54.85Z"/><use xlink:href="#B" x="237.91"/><path d="M411.87,0l-55,31.75v63.51l55,31.75,55-31.75V31.75L411.87,0Zm47.5,90.93l-47.5,27.42-47.5-27.42V36.08l47.5-27.42,47.5,27.42v54.85Z"/><use xlink:href="#B" x="356.87"/><path d="M530.83,0l-55,31.75v63.51l55,31.75,55-31.75V31.75L530.83,0Zm47.5,90.93l-47.5,27.42-47.5-27.42V36.08l47.5-27.42,47.5,27.42v54.85Z"/><use xlink:href="#B" x="475.82"/><path d="M649.78,0l-55,31.75v63.51l55,31.75,55-31.75V31.75L649.78,0Zm47.5,90.93l-47.5,27.42-47.5-27.42V36.08l47.5-27.42,47.5,27.42v54.85Z"/><use xlink:href="#B" x="594.78"/><path d="M768.74,0l-55,31.75v63.51l55,31.75,55-31.75V31.75L768.74,0Zm47.5,90.93l-47.5,27.42-47.5-27.42V36.08l47.5-27.42,47.5,27.42v54.85Z"/><use xlink:href="#B" x="713.74"/><path d="M887.7,0l-55,31.75v63.51l55,31.75,55-31.75V31.75L887.7,0Zm47.5,90.93l-47.5,27.42-47.5-27.42V36.08l47.5-27.42,47.5,27.42v54.85Z"/><use xlink:href="#B" x="832.69"/><path d="M1006.65,0l-55,31.75v63.51l55,31.75,55-31.75V31.75L1006.65,0Zm47.5,90.93l-47.5,27.42-47.5-27.42V36.08l47.5-27.42,47.5,27.42v54.85Z"/><use xlink:href="#B" x="951.65"/><path d="M1125.61,0l-55,31.75v63.51l55,31.75,55-31.75V31.75L1125.61,0Zm47.5,90.93l-47.5,27.42-47.5-27.42V36.08l47.5-27.42,47.5,27.42v54.85Z"/><use xlink:href="#B" x="1070.61"/><path d="M1244.57,0l-55,31.75v63.51l55,31.75,55-31.75V31.75L1244.57,0Zm47.5,90.93l-47.5,27.42-47.5-27.42V36.08l47.5-27.42,47.5,27.42v54.85Z"/><use xlink:href="#B" x="1189.56"/><path d="M1363.52,0l-55,31.75v63.51l55,31.75,55-31.75V31.75L1363.52,0Zm47.5,90.93l-47.5,27.42-47.5-27.42V36.08l47.5-27.42,47.5,27.42v54.85Z"/><use xlink:href="#C"/><use xlink:href="#D"/><use xlink:href="#C" x="118.95"/><use xlink:href="#D" x="118.95"/><use xlink:href="#C" x="237.91"/><use xlink:href="#D" x="237.91"/><use xlink:href="#C" x="356.87"/><use xlink:href="#D" x="356.87"/><use xlink:href="#C" x="475.82"/><use xlink:href="#D" x="475.82"/><use xlink:href="#C" x="594.78"/><use xlink:href="#D" x="594.78"/><use xlink:href="#C" x="713.74"/><use xlink:href="#D" x="713.74"/><use xlink:href="#C" x="832.69"/><use xlink:href="#D" x="832.69"/><use xlink:href="#C" x="951.65"/><use xlink:href="#D" x="951.65"/><use xlink:href="#C" x="1070.61"/><use xlink:href="#D" x="1070.61"/><use xlink:href="#C" x="1189.56"/><use xlink:href="#D" x="1189.56"/><use xlink:href="#C" x="1308.52"/><use xlink:href="#D" x="1308.52"/><use xlink:href="#E"/><path d="M55 203.93L0 235.68v63.51l55 31.75 55-31.75v-63.51l-55-31.75zm47.5 90.93L55 322.28 7.5 294.86v-54.85L55 212.59l47.5 27.42v54.85z"/><use xlink:href="#E" x="118.96"/><use xlink:href="#F"/><use xlink:href="#E" x="237.91"/><use xlink:href="#F" x="118.95"/><use xlink:href="#E" x="356.87"/><use xlink:href="#F" x="237.91"/><use xlink:href="#E" x="475.83"/><use xlink:href="#F" x="356.87"/><use xlink:href="#E" x="594.78"/><use xlink:href="#F" x="475.82"/><use xlink:href="#E" x="713.74"/><use xlink:href="#F" x="594.78"/><use xlink:href="#E" x="832.7"/><use xlink:href="#F" x="713.74"/><use xlink:href="#E" x="951.65"/><use xlink:href="#F" x="832.69"/><use xlink:href="#E" x="1070.61"/><use xlink:href="#F" x="951.65"/><use xlink:href="#E" x="1189.57"/><use xlink:href="#F" x="1070.61"/><use xlink:href="#E" x="1308.52"/><use xlink:href="#F" x="1189.56"/><use xlink:href="#G"/><use xlink:href="#H"/><use xlink:href="#G" x="118.95"/><use xlink:href="#H" x="118.95"/><use xlink:href="#G" x="237.91"/><use xlink:href="#H" x="237.91"/><use xlink:href="#G" x="356.87"/><use xlink:href="#H" x="356.87"/><use xlink:href="#G" x="475.82"/><use xlink:href="#H" x="475.82"/><use xlink:href="#G" x="594.78"/><use xlink:href="#H" x="594.78"/><use xlink:href="#G" x="713.74"/><use xlink:href="#H" x="713.74"/><use xlink:href="#G" x="832.69"/><use xlink:href="#H" x="832.69"/><use xlink:href="#G" x="951.65"/><use xlink:href="#H" x="951.65"/><use xlink:href="#G" x="1070.61"/><use xlink:href="#H" x="1070.61"/><use xlink:href="#G" x="1189.56"/><use xlink:href="#H" x="1189.56"/><use xlink:href="#G" x="1308.52"/><use xlink:href="#H" x="1308.52"/><use xlink:href="#I"/><path d="M55 407.85L0 439.61v63.51l55 31.75 55-31.75v-63.51l-55-31.75zm47.5 90.93L55 526.2 7.5 498.78v-54.85L55 416.51l47.5 27.42v54.85z"/><use xlink:href="#I" x="118.96"/><use xlink:href="#J"/><use xlink:href="#I" x="237.91"/><use xlink:href="#J" x="118.95"/><use xlink:href="#I" x="356.87"/><use xlink:href="#J" x="237.91"/><use xlink:href="#I" x="475.83"/><use xlink:href="#J" x="356.87"/><use xlink:href="#I" x="594.78"/><use xlink:href="#J" x="475.82"/><use xlink:href="#I" x="713.74"/><use xlink:href="#J" x="594.78"/><use xlink:href="#I" x="832.7"/><use xlink:href="#J" x="713.74"/><use xlink:href="#I" x="951.65"/><use xlink:href="#J" x="832.69"/><use xlink:href="#I" x="1070.61"/><use xlink:href="#J" x="951.65"/><use xlink:href="#I" x="1189.57"/><use xlink:href="#J" x="1070.61"/><use xlink:href="#I" x="1308.52"/><use xlink:href="#J" x="1189.56"/><use xlink:href="#C" y="407.85"/><use xlink:href="#K"/><use xlink:href="#C" x="118.95" y="407.85"/><use xlink:href="#K" x="118.95"/><use xlink:href="#C" x="237.91" y="407.85"/><use xlink:href="#K" x="237.91"/><use xlink:href="#C" x="356.87" y="407.85"/><use xlink:href="#K" x="356.87"/><use xlink:href="#C" x="475.82" y="407.85"/><use xlink:href="#K" x="475.82"/><use xlink:href="#C" x="594.78" y="407.85"/><use xlink:href="#K" x="594.78"/><use xlink:href="#C" x="713.74" y="407.85"/><use xlink:href="#K" x="713.74"/><use xlink:href="#C" x="832.69" y="407.85"/><use xlink:href="#K" x="832.69"/><use xlink:href="#C" x="951.65" y="407.85"/><use xlink:href="#K" x="951.65"/><use xlink:href="#C" x="1070.61" y="407.85"/><use xlink:href="#K" x="1070.61"/><use xlink:href="#C" x="1189.56" y="407.85"/><use xlink:href="#K" x="1189.56"/><use xlink:href="#C" x="1308.52" y="407.85"/><use xlink:href="#K" x="1308.52"/><path d="M15 652.19v46.19l40 23.09 40-23.09v-46.19L55 629.1l-40 23.09zm40-40.41L0 643.53v63.51l55 31.75 55-31.75v-63.51l-55-31.75zm47.5 90.93L55 730.13 7.5 702.71v-54.85L55 620.44l47.5 27.42v54.85z"/><use xlink:href="#E" x="118.96" y="407.85"/><use xlink:href="#L"/><use xlink:href="#E" x="237.91" y="407.85"/><use xlink:href="#L" x="118.95"/><use xlink:href="#E" x="356.87" y="407.85"/><use xlink:href="#L" x="237.91"/><use xlink:href="#E" x="475.83" y="407.85"/><use xlink:href="#L" x="356.87"/><use xlink:href="#E" x="594.78" y="407.85"/><use xlink:href="#L" x="475.82"/><use xlink:href="#E" x="713.74" y="407.85"/><use xlink:href="#L" x="594.78"/><use xlink:href="#E" x="832.7" y="407.85"/><use xlink:href="#L" x="713.74"/><use xlink:href="#E" x="951.65" y="407.85"/><use xlink:href="#L" x="832.69"/><use xlink:href="#E" x="1070.61" y="407.85"/><use xlink:href="#L" x="951.65"/><use xlink:href="#E" x="1189.57" y="407.85"/><use xlink:href="#L" x="1070.61"/><use xlink:href="#E" x="1308.52" y="407.85"/><use xlink:href="#L" x="1189.56"/><use xlink:href="#M"/><use xlink:href="#N"/><use xlink:href="#M" x="118.95"/><use xlink:href="#N" x="118.95"/><use xlink:href="#M" x="237.91"/><use xlink:href="#N" x="237.91"/><use xlink:href="#M" x="356.87"/><use xlink:href="#N" x="356.87"/><use xlink:href="#M" x="475.82"/><use xlink:href="#N" x="475.82"/><use xlink:href="#M" x="594.78"/><use xlink:href="#N" x="594.78"/><use xlink:href="#M" x="713.74"/><use xlink:href="#N" x="713.74"/><use xlink:href="#M" x="832.69"/><use xlink:href="#N" x="832.69"/><use xlink:href="#M" x="951.65"/><use xlink:href="#N" x="951.65"/><use xlink:href="#M" x="1070.61"/><use xlink:href="#N" x="1070.61"/><use xlink:href="#M" x="1189.56"/><use xlink:href="#N" x="1189.56"/><use xlink:href="#M" x="1308.52"/><use xlink:href="#N" x="1308.52"/><use xlink:href="#I" y="407.85"/><path d="M55 815.7L0 847.46v63.51l55 31.75 55-31.75v-63.51l-55-31.75zm47.5 90.93L55 934.05 7.5 906.63v-54.85L55 824.36l47.5 27.42v54.85z"/><use xlink:href="#I" x="118.96" y="407.85"/><use xlink:href="#O"/><use xlink:href="#I" x="237.91" y="407.85"/><use xlink:href="#O" x="118.95"/><use xlink:href="#I" x="356.87" y="407.85"/><use xlink:href="#O" x="237.91"/><use xlink:href="#I" x="475.83" y="407.85"/><use xlink:href="#O" x="356.87"/><use xlink:href="#I" x="594.78" y="407.85"/><use xlink:href="#O" x="475.82"/><use xlink:href="#I" x="713.74" y="407.85"/><use xlink:href="#O" x="594.78"/><use xlink:href="#I" x="832.7" y="407.85"/><use xlink:href="#O" x="713.74"/><use xlink:href="#I" x="951.65" y="407.85"/><use xlink:href="#O" x="832.69"/><use xlink:href="#I" x="1070.61" y="407.85"/><use xlink:href="#O" x="951.65"/><use xlink:href="#I" x="1189.57" y="407.85"/><use xlink:href="#O" x="1070.61"/><use xlink:href="#I" x="1308.52" y="407.85"/><use xlink:href="#O" x="1189.56"/><use xlink:href="#E" x="59.48" y="713.74"/><use xlink:href="#P"/><use xlink:href="#E" x="178.43" y="713.74"/><use xlink:href="#P" x="118.95"/><use xlink:href="#E" x="297.39" y="713.74"/><use xlink:href="#P" x="237.91"/><use xlink:href="#E" x="416.35" y="713.74"/><use xlink:href="#P" x="356.87"/><use xlink:href="#E" x="535.3" y="713.74"/><use xlink:href="#P" x="475.82"/><use xlink:href="#E" x="654.26" y="713.74"/><use xlink:href="#P" x="594.78"/><use xlink:href="#E" x="773.22" y="713.74"/><use xlink:href="#P" x="713.74"/><use xlink:href="#E" x="892.17" y="713.74"/><use xlink:href="#P" x="832.69"/><use xlink:href="#E" x="1011.13" y="713.74"/><use xlink:href="#P" x="951.65"/><use xlink:href="#E" x="1130.09" y="713.74"/><use xlink:href="#P" x="1070.61"/><use xlink:href="#E" x="1249.04" y="713.74"/><use xlink:href="#P" x="1189.56"/><use xlink:href="#E" x="1368" y="713.74"/><use xlink:href="#P" x="1308.52"/></g><defs ><path id="B" d="M133.96 40.41V86.6l40 23.1 40-23.1V40.41l-40-23.09-40 23.09z"/><path id="C" d="M74.48 142.38v46.19l40 23.09 40-23.09v-46.19l-40-23.1-40 23.1z"/><path id="D" d="M114.48,101.96l-55,31.75v63.51l55,31.75,55-31.75v-63.51l-55-31.75Zm47.5,90.93l-47.5,27.42-47.5-27.42v-54.85l47.5-27.42,47.5,27.42v54.85Z"/><path id="E" d="M15 244.34v46.19l40 23.09 40-23.09v-46.19l-40-23.09-40 23.09z"/><path id="F" d="M173.96,203.93l-55,31.75v63.51l55,31.75,55-31.75v-63.51l-55-31.75Zm47.5,90.93l-47.5,27.42-47.5-27.42v-54.85l47.5-27.42,47.5,27.42v54.85Z"/><path id="G" d="M74.48 346.3v46.19l40 23.09 40-23.09V346.3l-40-23.09-40 23.09z"/><path id="H" d="M114.48,305.89l-55,31.75v63.51l55,31.75,55-31.75v-63.51l-55-31.75Zm47.5,90.93l-47.5,27.42-47.5-27.42v-54.85l47.5-27.42,47.5,27.42v54.85Z"/><path id="I" d="M15 448.27v46.18l40 23.1 40-23.1v-46.18l-40-23.1-40 23.1z"/><path id="J" d="M173.96 407.85l-55 31.75v63.51l55 31.75 55-31.75V439.6l-55-31.75zm47.5 90.93l-47.5 27.42-47.5-27.42v-54.85l47.5-27.42 47.5 27.42v54.85z"/><path id="K" d="M114.48,509.81l-55,31.75v63.51l55,31.75,55-31.75v-63.51l-55-31.75Zm47.5,90.93l-47.5,27.42-47.5-27.42v-54.85l47.5-27.42,47.5,27.42v54.85Z"/><path id="L" d="M173.96,611.78l-55,31.75v63.51l55,31.75,55-31.75v-63.51l-55-31.75Zm47.5,90.93l-47.5,27.42-47.5-27.42v-54.85l47.5-27.42,47.5,27.42v54.85Z"/><path id="M" d="M74.48 754.15v46.19l40 23.1 40-23.1v-46.19l-40-23.09-40 23.09z"/><path id="N" d="M114.48 713.74l-55 31.75V809l55 31.75 55-31.75v-63.51l-55-31.75zm47.5 90.93l-47.5 27.42-47.5-27.42v-54.85l47.5-27.42 47.5 27.42v54.85z"/><path id="O" d="M173.96,815.7l-55,31.75v63.51l55,31.75,55-31.75v-63.51l-55-31.75Zm47.5,90.93l-47.5,27.42-47.5-27.42v-54.85l47.5-27.42,47.5,27.42v54.85Z"/><path id="P" d="M114.48,917.66l-55,31.75v63.51l55,31.75,55-31.75v-63.51l-55-31.75Zm47.5,90.93l-47.5,27.42-47.5-27.42v-54.85l47.5-27.42,47.5,27.42v54.85Z"/></defs></svg>